<?xml version="1.0" standalone="no"?>
<!DOCTYPE svg PUBLIC "-//W3C//DTD SVG 20010904//EN"
 "http://www.w3.org/TR/2001/REC-SVG-20010904/DTD/svg10.dtd">
<svg version="1.0" xmlns="http://www.w3.org/2000/svg"
 width="1102.000000pt" height="924.000000pt" viewBox="0 0 1102.000000 924.000000"
 preserveAspectRatio="xMidYMid meet">
<metadata>
Created by potrace 1.16, written by Peter Selinger 2001-2019
</metadata>
<g transform="translate(0.000000,924.000000) scale(0.100000,-0.100000)"
fill="#000000" stroke="none">
<path d="M5145 8898 c-11 -33 -101 -539 -170 -953 -185 -1126 -229 -1380 -289
-1672 -32 -154 -120 -545 -131 -583 -4 -13 -200 -15 -1698 -12 l-1692 2 -39
-205 c-21 -114 -69 -346 -107 -518 -91 -408 -174 -815 -204 -1002 -25 -155
-51 -402 -44 -409 2 -2 1233 -6 2736 -9 l2731 -5 25 81 c65 209 100 378 192
922 31 182 110 616 175 965 202 1080 274 1462 455 2444 96 522 175 953 175
957 0 5 -475 9 -1055 9 -836 0 -1057 -3 -1060 -12z"/>
</g>
</svg>
