<?xml version="1.0" standalone="no"?>
<!DOCTYPE svg PUBLIC "-//W3C//DTD SVG 20010904//EN"
 "http://www.w3.org/TR/2001/REC-SVG-20010904/DTD/svg10.dtd">
<svg version="1.0" xmlns="http://www.w3.org/2000/svg"
 width="1102.000000pt" height="924.000000pt" viewBox="0 0 1102.000000 924.000000"
 preserveAspectRatio="xMidYMid meet">

<g transform="translate(0.000000,924.000000) scale(0.100000,-0.100000)"
fill="#000000" stroke="none">
<path d="M5106 8663 c-58 -302 -86 -464 -191 -1118 -100 -617 -158 -949 -221
-1258 -53 -265 -121 -564 -133 -593 l-9 -21 -1649 4 c-906 2 -1668 0 -1692 -5
l-44 -7 -34 -185 c-18 -102 -76 -376 -128 -610 -51 -234 -106 -481 -120 -550
-60 -287 -128 -750 -112 -766 3 -3 313 -5 689 -4 375 0 1600 -4 2721 -11 1121
-6 2040 -9 2043 -6 10 9 54 149 79 247 37 145 78 361 146 758 33 196 147 823
254 1392 107 569 273 1460 370 1980 97 520 179 955 182 968 l5 22 -1055 0
-1055 0 -46 -237z"/>
<path d="M8223 6283 c86 -2 228 -2 315 0 86 1 15 3 -158 3 -173 0 -244 -2
-157 -3z"/>
<path d="M9618 6283 c133 -2 351 -2 485 0 133 1 24 2 -243 2 -267 0 -376 -1
-242 -2z"/>
<path d="M6993 3583 c70 -2 184 -2 255 0 70 1 12 3 -128 3 -140 0 -198 -2
-127 -3z"/>
<path d="M9433 3583 c70 -2 184 -2 255 0 70 1 12 3 -128 3 -140 0 -198 -2
-127 -3z"/>
<path d="M3188 353 c23 -2 59 -2 80 0 20 2 1 4 -43 4 -44 0 -61 -2 -37 -4z"/>
</g>
</svg>
